<svg width="35" height="36" viewBox="0 0 35 36" fill="none" xmlns="http://www.w3.org/2000/svg">
<path fill-rule="evenodd" clip-rule="evenodd" d="M17.5 33.2811C21.5611 33.2811 25.4559 31.6448 28.3276 28.7321C31.1992 25.8194 32.8125 21.869 32.8125 17.7499C32.8125 13.6308 31.1992 9.68037 28.3276 6.76771C25.4559 3.85505 21.5611 2.21874 17.5 2.21874C13.4389 2.21874 9.54408 3.85505 6.67243 6.76771C3.80078 9.68037 2.1875 13.6308 2.1875 17.7499C2.1875 21.869 3.80078 25.8194 6.67243 28.7321C9.54408 31.6448 13.4389 33.2811 17.5 33.2811ZM17.5 35.4998C22.1413 35.4998 26.5925 33.6297 29.8744 30.301C33.1563 26.9722 35 22.4575 35 17.7499C35 13.0423 33.1563 8.52758 29.8744 5.19883C26.5925 1.87007 22.1413 0 17.5 0C12.8587 0 8.40752 1.87007 5.12563 5.19883C1.84374 8.52758 0 13.0423 0 17.7499C0 22.4575 1.84374 26.9722 5.12563 30.301C8.40752 33.6297 12.8587 35.4998 17.5 35.4998Z" fill="#8D68AE"/>
<path fill-rule="evenodd" clip-rule="evenodd" d="M8.75 17.7492C8.75 18.0434 8.86523 18.3256 9.07035 18.5336C9.27547 18.7417 9.55367 18.8585 9.84375 18.8585H22.5159L17.8194 23.6199C17.7177 23.7231 17.637 23.8455 17.582 23.9803C17.5269 24.1151 17.4986 24.2595 17.4986 24.4054C17.4986 24.5513 17.5269 24.6957 17.582 24.8305C17.637 24.9652 17.7177 25.0877 17.8194 25.1908C17.9211 25.294 18.0418 25.3758 18.1747 25.4316C18.3075 25.4874 18.4499 25.5162 18.5937 25.5162C18.7376 25.5162 18.88 25.4874 19.0128 25.4316C19.1457 25.3758 19.2664 25.294 19.3681 25.1908L25.9306 18.5346C26.0325 18.4315 26.1133 18.3091 26.1684 18.1743C26.2236 18.0396 26.252 17.8951 26.252 17.7492C26.252 17.6032 26.2236 17.4588 26.1684 17.324C26.1133 17.1892 26.0325 17.0668 25.9306 16.9637L19.3681 10.3075C19.2664 10.2044 19.1457 10.1226 19.0128 10.0667C18.88 10.0109 18.7376 9.98218 18.5937 9.98218C18.4499 9.98218 18.3075 10.0109 18.1747 10.0667C18.0418 10.1226 17.9211 10.2044 17.8194 10.3075C17.7177 10.4107 17.637 10.5331 17.582 10.6679C17.5269 10.8026 17.4986 10.9471 17.4986 11.0929C17.4986 11.2388 17.5269 11.3833 17.582 11.518C17.637 11.6528 17.7177 11.7752 17.8194 11.8784L22.5159 16.6398H9.84375C9.55367 16.6398 9.27547 16.7567 9.07035 16.9647C8.86523 17.1728 8.75 17.4549 8.75 17.7492Z" fill="#8D68AE"/>
</svg>
