<svg width="35" height="36" viewBox="0 0 35 36" fill="none" xmlns="http://www.w3.org/2000/svg">
<path fill-rule="evenodd" clip-rule="evenodd" d="M17.5 33.2811C13.4389 33.2811 9.54408 31.6448 6.67243 28.7321C3.80078 25.8194 2.1875 21.869 2.1875 17.7499C2.1875 13.6308 3.80078 9.68037 6.67243 6.76771C9.54408 3.85505 13.4389 2.21874 17.5 2.21874C21.5611 2.21874 25.4559 3.85505 28.3276 6.76771C31.1992 9.68037 32.8125 13.6308 32.8125 17.7499C32.8125 21.869 31.1992 25.8194 28.3276 28.7321C25.4559 31.6448 21.5611 33.2811 17.5 33.2811ZM17.5 35.4998C12.8587 35.4998 8.40752 33.6297 5.12563 30.301C1.84374 26.9722 0 22.4575 0 17.7499C0 13.0423 1.84374 8.52758 5.12563 5.19883C8.40752 1.87007 12.8587 0 17.5 0C22.1413 0 26.5925 1.87007 29.8744 5.19883C33.1563 8.52758 35 13.0423 35 17.7499C35 22.4575 33.1563 26.9722 29.8744 30.301C26.5925 33.6297 22.1413 35.4998 17.5 35.4998Z" fill="#8D68AE"/>
<path fill-rule="evenodd" clip-rule="evenodd" d="M26.25 17.7492C26.25 18.0434 26.1347 18.3256 25.9296 18.5336C25.7245 18.7417 25.4463 18.8585 25.1562 18.8585H12.484L17.1806 23.6199C17.2823 23.7231 17.363 23.8455 17.418 23.9803C17.473 24.1151 17.5014 24.2595 17.5014 24.4054C17.5014 24.5513 17.473 24.6957 17.418 24.8305C17.363 24.9652 17.2823 25.0877 17.1806 25.1908C17.0789 25.294 16.9582 25.3758 16.8253 25.4316C16.6924 25.4874 16.55 25.5162 16.4062 25.5162C16.2624 25.5162 16.12 25.4874 15.9871 25.4316C15.8543 25.3758 15.7335 25.294 15.6318 25.1908L9.06935 18.5346C8.96749 18.4315 8.88668 18.3091 8.83154 18.1743C8.7764 18.0396 8.74802 17.8951 8.74802 17.7492C8.74802 17.6032 8.7764 17.4588 8.83154 17.324C8.88668 17.1892 8.96749 17.0668 9.06935 16.9637L15.6318 10.3075C15.7335 10.2044 15.8543 10.1226 15.9871 10.0667C16.12 10.0109 16.2624 9.98218 16.4062 9.98218C16.55 9.98218 16.6924 10.0109 16.8253 10.0667C16.9582 10.1226 17.0789 10.2044 17.1806 10.3075C17.2823 10.4107 17.363 10.5331 17.418 10.6679C17.473 10.8026 17.5014 10.9471 17.5014 11.0929C17.5014 11.2388 17.473 11.3833 17.418 11.518C17.363 11.6528 17.2823 11.7752 17.1806 11.8784L12.484 16.6398H25.1562C25.4463 16.6398 25.7245 16.7567 25.9296 16.9647C26.1347 17.1728 26.25 17.4549 26.25 17.7492Z" fill="#8D68AE"/>
</svg>
