<svg width="31" height="31" viewBox="0 0 31 31" fill="none" xmlns="http://www.w3.org/2000/svg">
<path fill-rule="evenodd" clip-rule="evenodd" d="M0 15.5865C0 23.2933 5.59722 29.7011 12.9167 31V19.8055H9.04167V15.5H12.9167V12.0555C12.9167 8.18054 15.4138 6.02777 18.9445 6.02777C20.0638 6.02777 21.2695 6.19999 22.3888 6.3722V10.3333H20.4083C18.5138 10.3333 18.0833 11.2805 18.0833 12.4861V15.5H22.2167L21.5278 19.8055H18.0833V31C25.4028 29.7011 31 23.2933 31 15.5865C31 7.01397 24.025 0 15.5 0C6.975 0 0 7.01397 0 15.5865H0Z" fill="white"/>
</svg>
