<svg width="31" height="36" viewBox="0 0 31 36" fill="none" xmlns="http://www.w3.org/2000/svg">
<path d="M15.7813 18.2607C20.1382 18.2607 23.6702 14.6206 23.6702 10.1304C23.6702 5.64009 20.1382 2 15.7813 2C11.4245 2 7.89252 5.64009 7.89252 10.1304C7.89252 14.6206 11.4245 18.2607 15.7813 18.2607Z" stroke="#F7A01E" stroke-width="2.5"/>
<path d="M23.6702 21.5354H24.2251C26.6121 21.5354 28.6256 23.3673 28.9218 25.8086L29.5379 30.8884C29.7733 32.8295 28.3047 34.544 26.4067 34.544H5.15599C3.25795 34.544 1.78941 32.8295 2.02483 30.8884L2.64095 25.8086C2.93703 23.3673 4.95059 21.5354 7.3377 21.5354H7.89253" stroke="#F7A01E" stroke-width="2.5" stroke-linecap="round" stroke-linejoin="round"/>
</svg>
