<svg width="31" height="31" viewBox="0 0 31 31" fill="none" xmlns="http://www.w3.org/2000/svg">
<path d="M15.5 11.625C14.4723 11.625 13.4867 12.0333 12.76 12.76C12.0333 13.4867 11.625 14.4723 11.625 15.5C11.625 16.5278 12.0333 17.5134 12.76 18.2401C13.4867 18.9668 14.4723 19.375 15.5 19.375C16.5277 19.375 17.5133 18.9668 18.2401 18.2401C18.9668 17.5134 19.375 16.5278 19.375 15.5C19.375 14.4723 18.9668 13.4867 18.2401 12.76C17.5133 12.0333 16.5277 11.625 15.5 11.625ZM15.5 9.04171C17.2129 9.04171 18.8556 9.72214 20.0667 10.9333C21.2779 12.1445 21.9583 13.7872 21.9583 15.5C21.9583 17.2129 21.2779 18.8556 20.0667 20.0668C18.8556 21.2779 17.2129 21.9584 15.5 21.9584C13.7872 21.9584 12.1445 21.2779 10.9333 20.0668C9.72211 18.8556 9.04168 17.2129 9.04168 15.5C9.04168 13.7872 9.72211 12.1445 10.9333 10.9333C12.1445 9.72214 13.7872 9.04171 15.5 9.04171ZM23.8958 8.71879C23.8958 9.147 23.7257 9.55768 23.4229 9.86047C23.1202 10.1633 22.7095 10.3334 22.2813 10.3334C21.853 10.3334 21.4424 10.1633 21.1396 9.86047C20.8368 9.55768 20.6667 9.147 20.6667 8.71879C20.6667 8.29058 20.8368 7.8799 21.1396 7.57711C21.4424 7.27431 21.853 7.10421 22.2813 7.10421C22.7095 7.10421 23.1202 7.27431 23.4229 7.57711C23.7257 7.8799 23.8958 8.29058 23.8958 8.71879ZM15.5 5.16671C12.3044 5.16671 11.7826 5.17575 10.2959 5.24162C9.28322 5.28942 8.6038 5.42504 7.97347 5.67046C7.41289 5.88746 7.00859 6.14708 6.57847 6.5785C6.17419 6.9691 5.86334 7.44596 5.66914 7.9735C5.42372 8.60642 5.28809 9.28454 5.24159 10.2959C5.17443 11.7219 5.16668 12.2205 5.16668 15.5C5.16668 18.6956 5.17572 19.2175 5.24159 20.7042C5.28939 21.7155 5.42501 22.3962 5.66914 23.0253C5.88872 23.5872 6.14705 23.9915 6.57589 24.4203C7.01118 24.8543 7.41547 25.1139 7.97089 25.3283C8.60897 25.575 9.28839 25.712 10.2959 25.7585C11.7219 25.8256 12.2205 25.8334 15.5 25.8334C18.6956 25.8334 19.2174 25.8243 20.7041 25.7585C21.7142 25.7107 22.3949 25.575 23.0253 25.3309C23.5846 25.1126 23.9914 24.853 24.4203 24.4242C24.8556 23.9889 25.1152 23.5846 25.3296 23.0292C25.575 22.3924 25.7119 21.7117 25.7584 20.7042C25.8256 19.2782 25.8333 18.7796 25.8333 15.5C25.8333 12.3045 25.8243 11.7826 25.7584 10.2959C25.7106 9.28583 25.575 8.60383 25.3296 7.9735C25.1349 7.4465 24.8246 6.96982 24.4216 6.5785C24.0311 6.17401 23.5542 5.86313 23.0266 5.66917C22.3936 5.42375 21.7142 5.28812 20.7041 5.24162C19.2781 5.17446 18.7796 5.16671 15.5 5.16671ZM15.5 2.58337C19.0095 2.58337 19.4473 2.59629 20.8243 2.66087C22.1999 2.72546 23.1363 2.94117 23.9604 3.2615C24.8129 3.58958 25.5311 4.03392 26.2493 4.75079C26.9061 5.39649 27.4143 6.17755 27.7386 7.03962C28.0576 7.86242 28.2746 8.80017 28.3392 10.1758C28.3999 11.5527 28.4167 11.9906 28.4167 15.5C28.4167 19.0095 28.4038 19.4474 28.3392 20.8243C28.2746 22.1999 28.0576 23.1364 27.7386 23.9605C27.4152 24.823 26.9069 25.6043 26.2493 26.2493C25.6034 26.9059 24.8224 27.4141 23.9604 27.7386C23.1376 28.0576 22.1999 28.2746 20.8243 28.3392C19.4473 28.3999 19.0095 28.4167 15.5 28.4167C11.9906 28.4167 11.5527 28.4038 10.1758 28.3392C8.80014 28.2746 7.86368 28.0576 7.03959 27.7386C6.17718 27.415 5.39598 26.9067 4.75076 26.2493C4.09383 25.6037 3.58559 24.8226 3.26147 23.9605C2.94114 23.1377 2.72543 22.1999 2.66084 20.8243C2.60014 19.4474 2.58334 19.0095 2.58334 15.5C2.58334 11.9906 2.59626 11.5527 2.66084 10.1758C2.72543 8.79887 2.94114 7.86371 3.26147 7.03962C3.58469 6.17702 4.09305 5.39575 4.75076 4.75079C5.39617 4.09363 6.17731 3.58536 7.03959 3.2615C7.86368 2.94117 8.79884 2.72546 10.1758 2.66087C11.5527 2.60017 11.9906 2.58337 15.5 2.58337Z" fill="white"/>
</svg>
