<svg width="24" height="20" viewBox="0 0 24 20" fill="none" xmlns="http://www.w3.org/2000/svg">
<path d="M23.5453 6.31C23.7281 6.15573 24 6.30005 24 6.54389V16.7205C24 18.0392 22.9922 19.1091 21.75 19.1091H2.25C1.00781 19.1091 0 18.0392 0 16.7205V6.54887C0 6.30005 0.267187 6.16071 0.454687 6.31498C1.50469 7.18086 2.89688 8.28063 7.67813 11.9681C8.66719 12.7345 10.3359 14.3468 12 14.3368C13.6734 14.3518 15.375 12.7046 16.3266 11.9681C21.1078 8.28063 22.4953 7.17588 23.5453 6.31ZM12 12.7394C13.0875 12.7593 14.6531 11.2863 15.4406 10.6792C21.6609 5.88701 22.1344 5.469 23.5687 4.27468C23.8406 4.05074 24 3.7024 24 3.33415V2.38864C24 1.06991 22.9922 0 21.75 0H2.25C1.00781 0 0 1.06991 0 2.38864V3.33415C0 3.7024 0.159375 4.04576 0.43125 4.27468C1.86563 5.46402 2.33906 5.88701 8.55938 10.6792C9.34688 11.2863 10.9125 12.7593 12 12.7394Z" fill="#8D68AE"/>
</svg>
