<svg width="25" height="25" viewBox="0 0 25 25" fill="none" xmlns="http://www.w3.org/2000/svg">
<path d="M24.3767 20.0669L20.8914 23.442C20.3769 23.9571 19.695 24.1316 19.0309 24.1324C16.0939 24.0465 13.3178 22.6381 11.0384 21.1919C7.29698 18.5348 3.86405 15.24 1.70948 11.2584C0.883131 9.58877 -0.0864756 7.45847 0.00616315 5.59486C0.0144238 4.89382 0.207941 4.20579 0.713695 3.75391L4.19895 0.353235C4.92267 -0.247722 5.62256 -0.0399419 6.08569 0.660058L8.8896 5.85057C9.18471 6.46548 9.01542 7.12433 8.57512 7.56372L7.29107 8.8166C7.2118 8.9226 7.16133 9.04326 7.16005 9.17458C7.65244 11.0352 9.14411 12.7502 10.4619 13.9304C11.7796 15.1106 13.196 16.7096 15.0346 17.0881C15.2619 17.15 15.5402 17.1717 15.7028 17.0242L17.1966 15.5412C17.7115 15.1602 18.4549 14.974 19.0046 15.2855H19.0309L24.0884 18.2004C24.8308 18.6547 24.9083 19.5327 24.3767 20.0669Z" fill="#8D68AE"/>
</svg>
